<svg width="30" height="34" viewBox="0 0 30 34" fill="none" xmlns="http://www.w3.org/2000/svg">
<path d="M0 28.8048C0 29.219 0.335786 29.5548 0.75 29.5548C1.16421 29.5548 1.5 29.219 1.5 28.8048H0ZM1.77713 1.77713L1.2468 1.2468L1.2468 1.2468L1.77713 1.77713ZM28.4966 1.05814L27.9663 1.58842L27.9664 1.58853L28.4966 1.05814ZM28.0548 24.7965C28.0548 25.2107 28.3906 25.5465 28.8048 25.5465C29.219 25.5465 29.5548 25.2107 29.5548 24.7965H28.0548ZM4.25685 24.5479C3.84264 24.5479 3.50685 24.8837 3.50685 25.2979C3.50685 25.7122 3.84264 26.0479 4.25685 26.0479V24.5479ZM28.8048 26.0479C29.219 26.0479 29.5548 25.7122 29.5548 25.2979C29.5548 24.8837 29.219 24.5479 28.8048 24.5479V26.0479ZM4.25685 31.5616C3.84264 31.5616 3.50685 31.8974 3.50685 32.3116C3.50685 32.7259 3.84264 33.0616 4.25685 33.0616V31.5616ZM28.8048 33.0616C29.219 33.0616 29.5548 32.7259 29.5548 32.3116C29.5548 31.8974 29.219 31.5616 28.8048 31.5616V33.0616ZM1.5 28.8048V4.25685H0V28.8048H1.5ZM1.5 4.25685C1.5 3.52569 1.79045 2.82447 2.30746 2.30746L1.2468 1.2468C0.448492 2.04512 0 3.12786 0 4.25685H1.5ZM2.30746 2.30746C2.82448 1.79045 3.52566 1.5 4.25685 1.5V0C3.12783 0 2.04512 0.448494 1.2468 1.2468L2.30746 2.30746ZM4.25685 1.5H27.7527V0H4.25685V1.5ZM27.7527 1.5C27.8329 1.5 27.9097 1.53183 27.9663 1.58842L29.027 0.527855C28.6891 0.189857 28.2307 0 27.7527 0V1.5ZM27.9664 1.58853C28.023 1.64513 28.0548 1.72191 28.0548 1.80205H29.5548C29.5548 1.32415 29.365 0.865752 29.0269 0.527749L27.9664 1.58853ZM28.0548 1.80205V24.7965H29.5548V1.80205H28.0548ZM4.25685 26.0479H28.8048V24.5479H4.25685V26.0479ZM4.25685 33.0616H28.8048V31.5616H4.25685V33.0616Z" fill="#757575"/>
</svg>
