<svg width="13" height="14" viewBox="0 0 13 14" fill="none" xmlns="http://www.w3.org/2000/svg">
<path d="M5.84091 3.68168C6.25512 3.68168 6.59091 3.3459 6.59091 2.93168C6.59091 2.51747 6.25512 2.18168 5.84091 2.18168V3.68168ZM1.17603 3.35771L1.70635 3.88805L1.70637 3.88804L1.17603 3.35771ZM1.17603 11.9602L1.70638 11.4299L1.70637 11.4299L1.17603 11.9602ZM10.9545 7.29532C10.9545 6.88111 10.6188 6.54532 10.2045 6.54532C9.79033 6.54532 9.45455 6.88111 9.45455 7.29532H10.9545ZM4.58331 7.49226C4.29041 7.78516 4.29041 8.26003 4.58331 8.55292C4.8762 8.84582 5.35107 8.84582 5.64397 8.55292L4.58331 7.49226ZM12.9167 1.2802C13.2096 0.987304 13.2096 0.51243 12.9167 0.219537C12.6238 -0.0733564 12.1489 -0.0733564 11.856 0.219537L12.9167 1.2802ZM12.3864 1.49987C12.8006 1.49987 13.1364 1.16408 13.1364 0.749867C13.1364 0.335653 12.8006 -0.000133157 12.3864 -0.000133157V1.49987ZM8.75 -0.000133157C8.33579 -0.000133157 8 0.335653 8 0.749867C8 1.16408 8.33579 1.49987 8.75 1.49987V-0.000133157ZM13.1364 0.749867C13.1364 0.335653 12.8006 -0.000133157 12.3864 -0.000133157C11.9721 -0.000133157 11.6364 0.335653 11.6364 0.749867H13.1364ZM11.6364 4.38623C11.6364 4.80044 11.9721 5.13623 12.3864 5.13623C12.8006 5.13623 13.1364 4.80044 13.1364 4.38623H11.6364ZM5.84091 2.18168H2.20455V3.68168H5.84091V2.18168ZM2.20455 2.18168C1.61987 2.18168 1.05913 2.41394 0.645692 2.82739L1.70637 3.88804C1.83849 3.75591 2.01769 3.68168 2.20455 3.68168V2.18168ZM0.645706 2.82738C0.232259 3.24081 0 3.80155 0 4.38623H1.5C1.5 4.19937 1.57423 4.02017 1.70635 3.88805L0.645706 2.82738ZM0 4.38623V10.9317H1.5V4.38623H0ZM0 10.9317C0 11.5164 0.232269 12.0771 0.645685 12.4905L1.70637 11.4299C1.57422 11.2977 1.5 11.1185 1.5 10.9317H0ZM0.645678 12.4905C1.05913 12.904 1.61988 13.1362 2.20455 13.1362V11.6362C2.01768 11.6362 1.83849 11.562 1.70638 11.4299L0.645678 12.4905ZM2.20455 13.1362H8.75V11.6362H2.20455V13.1362ZM8.75 13.1362C9.33466 13.1362 9.89539 12.904 10.3088 12.4905L9.24818 11.4299C9.11603 11.562 8.93683 11.6362 8.75 11.6362V13.1362ZM10.3088 12.4905C10.7223 12.0771 10.9545 11.5163 10.9545 10.9317H9.45455C9.45455 11.1185 9.38033 11.2977 9.24818 11.4299L10.3088 12.4905ZM10.9545 10.9317V7.29532H9.45455V10.9317H10.9545ZM5.64397 8.55292L12.9167 1.2802L11.856 0.219537L4.58331 7.49226L5.64397 8.55292ZM12.3864 -0.000133157H8.75V1.49987H12.3864V-0.000133157ZM11.6364 0.749867V4.38623H13.1364V0.749867H11.6364Z" fill="#757575"/>
</svg>
