<svg width="18" height="18" viewBox="0 0 18 18" fill="none" xmlns="http://www.w3.org/2000/svg">
<path d="M12.943 11.8823C12.6501 11.5894 12.1752 11.5894 11.8823 11.8823C11.5894 12.1752 11.5894 12.6501 11.8823 12.943L12.943 11.8823ZM15.7699 16.8306C16.0628 17.1234 16.5377 17.1234 16.8306 16.8306C17.1234 16.5377 17.1234 16.0628 16.8306 15.7699L15.7699 16.8306ZM2.70195 12.1268L3.23231 11.5965L3.23226 11.5964L2.70195 12.1268ZM4.86403 13.5715L4.57696 14.2644L4.57704 14.2644L4.86403 13.5715ZM9.96473 13.5715L10.2517 14.2644L10.2518 14.2644L9.96473 13.5715ZM12.1268 12.1268L11.5965 11.5964L11.5964 11.5965L12.1268 12.1268ZM13.5715 9.96473L14.2644 10.2518L14.2644 10.2517L13.5715 9.96473ZM12.1268 2.70195L11.5964 3.23228L11.5965 3.2323L12.1268 2.70195ZM11.8823 12.943L15.7699 16.8306L16.8306 15.7699L12.943 11.8823L11.8823 12.943ZM0 7.41438C0 8.38802 0.191775 9.35213 0.564377 10.2517L1.95021 9.67773C1.65297 8.9601 1.5 8.19103 1.5 7.41438H0ZM0.564377 10.2517C0.936992 11.1514 1.48315 11.9687 2.17165 12.6571L3.23226 11.5964C2.68307 11.0473 2.24743 10.3953 1.95021 9.67773L0.564377 10.2517ZM2.1716 12.6571C2.86012 13.3457 3.67748 13.8917 4.57696 14.2644L5.15111 12.8786C4.43347 12.5813 3.78147 12.1457 3.23231 11.5965L2.1716 12.6571ZM4.57704 14.2644C5.47658 14.637 6.44075 14.8288 7.41438 14.8288V13.3288C6.63773 13.3288 5.8686 13.1758 5.15102 12.8786L4.57704 14.2644ZM7.41438 14.8288C8.38803 14.8288 9.35213 14.637 10.2517 14.2644L9.67776 12.8786C8.9601 13.1758 8.19102 13.3288 7.41438 13.3288V14.8288ZM10.2518 14.2644C11.1513 13.8917 11.9687 13.3456 12.6571 12.657L11.5964 11.5965C11.0473 12.1457 10.3953 12.5813 9.67767 12.8786L10.2518 14.2644ZM12.657 12.6571C13.3456 11.9687 13.8917 11.1513 14.2644 10.2518L12.8786 9.67767C12.5813 10.3953 12.1457 11.0473 11.5965 11.5964L12.657 12.6571ZM14.2644 10.2517C14.637 9.35213 14.8288 8.38803 14.8288 7.41438H13.3288C13.3288 8.19102 13.1758 8.9601 12.8786 9.67776L14.2644 10.2517ZM14.8288 7.41438C14.8288 5.44797 14.0477 3.56209 12.6571 2.1716L11.5965 3.2323C12.7057 4.34145 13.3288 5.84578 13.3288 7.41438H14.8288ZM12.6571 2.17163C11.2667 0.781156 9.3808 0 7.41438 0V1.5C8.98297 1.5 10.4873 2.12312 11.5964 3.23228L12.6571 2.17163ZM7.41438 0C5.44796 0 3.56209 0.781155 2.17162 2.17162L3.23228 3.23228C4.34145 2.12312 5.84579 1.5 7.41438 1.5V0ZM2.17162 2.17162C0.781155 3.56209 0 5.44796 0 7.41438H1.5C1.5 5.84579 2.12312 4.34145 3.23228 3.23228L2.17162 2.17162Z" fill="#A445ED"/>
</svg>
